<svg xmlns="http://www.w3.org/2000/svg" width="585" height="405.151" viewBox="0 0 585 405.151">
  <g id="Group_103" data-name="Group 103" transform="translate(0)">
    <path id="Path_266" data-name="Path 266" d="M749.81,516.969c0,36.666-21.8,49.468-48.685,49.468s-48.685-12.8-48.685-49.468,48.685-83.31,48.685-83.31S749.81,480.3,749.81,516.969Z" transform="translate(-331.535 -239.934)" fill="#ff7321"/>
    <path id="Path_267" data-name="Path 267" d="M663.014,454.143l20.751-37.963-20.673,33.149.224-13.8,14.3-27.466L663.375,431.88l.4-24.815L679.093,385.2l-15.251,17.964.252-45.5-1.515,57.658L647.071,391.58l15.32,28.6L660.94,447.9l-.043-.736-17.95-25.08,17.895,27.679-.182,3.466-.032.053.015.284-3.681,36.983h4.918l.59-2.988,17.851-27.611-17.807,24.881Z" transform="translate(-294.699 -163.935)" fill="#3f3d56"/>
    <path id="Path_268" data-name="Path 268" d="M982.62,235.142c0,70.04-41.638,94.5-93,94.5s-93-24.455-93-94.5S889.622,76,889.622,76,982.62,165.1,982.62,235.142Z" transform="translate(-397.62 -75.999)" fill="#f2f2f2"/>
    <path id="Path_269" data-name="Path 269" d="M870.462,242.924l.952-58.617,39.64-72.518-39.49,63.323.428-26.357,27.319-52.466L872.106,141.78h0l.77-47.4,29.254-41.769L873,86.922,873.478,0l-3.024,115.069.249-4.747L840.96,64.8l29.266,54.638-2.771,52.942-.083-1.405-34.288-47.91,34.184,52.874-.347,6.621-.062.1.029.543-7.031,134.318h9.394l1.127-69.378,34.1-52.744Z" transform="translate(-381.849 0)" fill="#3f3d56"/>
    <path id="Path_270" data-name="Path 270" d="M641.162,636.946c0,20.9-135.611,99.361-294.141,99.361S59.976,695.7,59.976,674.8s125.359,3.943,283.889,3.943S641.162,616.041,641.162,636.946Z" transform="translate(-59.976 -331.156)" fill="#3f3d56"/>
    <path id="Path_271" data-name="Path 271" d="M641.162,636.946c0,20.9-135.611,99.361-294.141,99.361S59.976,695.7,59.976,674.8s125.359,3.943,283.889,3.943S641.162,616.041,641.162,636.946Z" transform="translate(-59.976 -331.156)" opacity="0.1"/>
    <path id="Path_272" data-name="Path 272" d="M641.162,635.348c0,20.9-135.611,75.7-294.141,75.7S59.976,694.1,59.976,673.2s125.359-19.715,283.889-19.715S641.162,614.443,641.162,635.348Z" transform="translate(-59.976 -329.558)" fill="#3f3d56"/>
    <ellipse id="Ellipse_28" data-name="Ellipse 28" cx="121.894" cy="9.428" rx="121.894" ry="9.428" transform="translate(168.362 338.185)" opacity="0.1"/>
    <path id="Path_273" data-name="Path 273" d="M415.617,368.965s35.685.661,29.077,6.939-31.39,0-31.39,0Z" transform="translate(-221.926 -210.282)" fill="#a0616a"/>
    <path id="Path_274" data-name="Path 274" d="M273.046,227.977s14.408-2.573,19.418,9.058,15.3,44.8,15.3,44.8S335.3,300.063,340.3,299.464s13.569.623,12,6.087-.873,11.659-4.489,12.418-9.365-6.489-13.766-3-43.619-9.26-46.136-11.9-23.442-59.852-23.442-59.852S265.307,227.791,273.046,227.977Z" transform="translate(-153.706 -145.548)" fill="#ff7321"/>
    <path id="Path_275" data-name="Path 275" d="M260.323,605.607l1.652,13.878L248.1,623.119l-7.93-3.635V607.259Z" transform="translate(-110.082 -277.583)" fill="#a0616a"/>
    <path id="Path_276" data-name="Path 276" d="M191.389,622.078l1.652,13.877-13.877,3.635-7.93-3.635V623.73Z" transform="translate(-78.486 -285.133)" fill="#a0616a"/>
    <path id="Path_277" data-name="Path 277" d="M289.838,398.525l6.278,22.8,9.251,46.259a45.556,45.556,0,0,1-2.643,24.782c-5.287,13.547-14.869,57.824-12.886,60.467s-22.469,4.626-22.138,1.983,3.635-38.99,3.635-38.99,4.626-32.051,6.939-36.016S267.7,465.931,267.7,465.931s-3.3,38-8.26,41.3-4.3,54.519-6.609,55.18-19.164,3.3-21.147,0,0-58.485,0-58.485,11.234-41.963,8.921-47.911-.991-31.39-.991-31.39-8.591-19.495-3.965-29.738Z" transform="translate(-138.275 -222.165)" fill="#2f2e41"/>
    <path id="Path_278" data-name="Path 278" d="M308.326,153.624s-13.878,17.182-13.217,24.782S273.3,164.527,273.3,164.527s16.191-21.808,16.191-26.434S308.326,153.624,308.326,153.624Z" transform="translate(-157.755 -104.144)" fill="#a0616a"/>
    <circle id="Ellipse_29" data-name="Ellipse 29" cx="21.808" cy="21.808" r="21.808" transform="translate(128.598 12.307)" fill="#a0616a"/>
    <path id="Path_279" data-name="Path 279" d="M234.37,287.182c-.988,3.681-2.214,7.854-2.039,11.37.112,2.277,6.156,3.77,14.512,4.748,7.748.909,17.486,1.371,26.338,1.609,9.295.251,17.6.251,21.6.251,11.9,0,2.313-7.6-2.313-11.234s-3.635-55.18-3.3-61.789-2.974-25.773-2.974-29.407-7.775-13.121-7.775-13.121-1.807,5.191-9.077-1.748a38.633,38.633,0,0,0-16.851-8.921c-7.269,2.643-19.495,31.72-20.156,36.677-.268,2.012-.046,12.318.4,24.084.651,17.2,1.788,37.529,2.571,39.687C235.923,281.089,235.239,283.944,234.37,287.182Z" transform="translate(-138.923 -123.182)" fill="#ff7321"/>
    <path id="Path_280" data-name="Path 280" d="M233.278,338.413l2.313,8.261-8.921,9.252L223.7,343.039Z" transform="translate(-102.532 -155.113)" fill="#a0616a"/>
    <path id="Path_281" data-name="Path 281" d="M300.317,695.484s6.939,7.93,12.226,2.643,4.956-8.591,5.948-8.591,15.86,13.217,15.86,13.217S359.793,708.7,345.915,713s-53.2,1.322-53.2,0-.991-18.834,2.643-18.834Z" transform="translate(-166.598 -357.217)" fill="#2f2e41"/>
    <path id="Path_282" data-name="Path 282" d="M231.383,711.955s6.939,7.93,12.226,2.643,4.956-8.591,5.948-8.591,15.86,13.217,15.86,13.217,25.442,5.948,11.565,10.243-53.2,1.322-53.2,0-.991-18.834,2.643-18.834Z" transform="translate(-135.001 -364.767)" fill="#2f2e41"/>
    <path id="Path_283" data-name="Path 283" d="M285.214,128.893c-.7.455-1.622.916-2.327.463a105.437,105.437,0,0,1-5.851-20.259c-.445-2.435-.754-5.141.6-7.214a17.7,17.7,0,0,0,1.692-2.381c.592-1.355.2-2.923.4-4.388.412-3.07,3.314-5.211,6.232-6.249s6.087-1.36,8.869-2.723c2.641-1.294,4.756-3.439,7.205-5.068s5.586-2.742,8.313-1.641c2.413.973,3.916,3.433,6.2,4.685a18.075,18.075,0,0,0,5.071,1.451,32.457,32.457,0,0,1,13.183,6.125,9.573,9.573,0,0,1,2.4,2.473c2.926,4.818-2.313,11.368,0,16.51l-5-3.943a17.4,17.4,0,0,0-4.463-2.837,5.882,5.882,0,0,0-5.12.231c-2.11,1.311-2.683,4.049-3.42,6.422s-2.367,5-4.851,4.942c-3.377-.083-4.559-4.8-7.59-6.288a5.85,5.85,0,0,0-6.147,1.087,12.6,12.6,0,0,0-3.436,5.551,15.139,15.139,0,0,1-1.721,3.88c-.908,1.239-2.068,1.339-3.037,2.264C289.886,124.392,288.335,126.877,285.214,128.893Z" transform="translate(-159.292 -77.371)" fill="#2f2e41"/>
    <path id="Path_284" data-name="Path 284" d="M234.809,305.43a153.984,153.984,0,0,0,12.473,16.118c7.748.909,17.486,1.371,26.338,1.609a20.867,20.867,0,0,0-5.825-5.366c-4.3-2.643-14.539-34.033-14.539-34.033s12.556-32.381,15.86-44.607-9.582-19.164-9.582-19.164c-5.948-4.956-16.191,6.608-16.191,6.608s-5.227,15.768-10.17,31.354c.651,17.2,1.788,37.529,2.571,39.687C236.362,299.337,235.678,302.192,234.809,305.43Z" transform="translate(-139.362 -141.431)" opacity="0.1"/>
    <path id="Path_285" data-name="Path 285" d="M250.369,215.107s12.886,6.939,9.582,19.164-15.86,44.607-15.86,44.607,10.243,31.39,14.539,34.033,10.243,8.921,5.617,12.226-7.93,8.591-11.234,6.939-3.3-10.9-8.921-10.9-28.416-34.364-28.747-38,18.834-61.458,18.834-61.458S244.421,210.15,250.369,215.107Z" transform="translate(-131.188 -139.194)" fill="#ff7321"/>
    <path id="Path_286" data-name="Path 286" d="M615.864,376.88l-3.717-3.717a11.561,11.561,0,0,0-16.35,0l-72.1,72.1-72.1-72.1a11.561,11.561,0,0,0-16.35,0l-3.717,3.717a11.561,11.561,0,0,0,0,16.35l72.1,72.1-72.1,72.1a11.561,11.561,0,0,0,0,16.35l3.717,3.717a11.561,11.561,0,0,0,16.35,0l72.1-72.1,72.1,72.1a11.561,11.561,0,0,0,16.35,0l3.717-3.717a11.562,11.562,0,0,0,0-16.35l-72.1-72.1,72.1-72.1a11.561,11.561,0,0,0,0-16.35Z" transform="translate(-228.726 -210.653)" fill="#ff6584"/>
    <path id="Path_287" data-name="Path 287" d="M429.643,626.773l69.96-69.96-.673-.673-66.714,66.713A11.514,11.514,0,0,0,429.643,626.773Z" transform="translate(-229.415 -296.074)" opacity="0.1"/>
    <path id="Path_288" data-name="Path 288" d="M431.219,379.223a11.561,11.561,0,0,1,16.35,0l72.1,72.1,72.1-72.1a11.561,11.561,0,0,1,16.35,0l3.717,3.717a11.561,11.561,0,0,1,2.573,12.43l2.141-2.141a11.561,11.561,0,0,0,0-16.35l-3.717-3.717a11.561,11.561,0,0,0-16.35,0l-72.1,72.1-72.1-72.1a11.561,11.561,0,0,0-16.35,0l-3.717,3.717a11.515,11.515,0,0,0-2.573,3.92Z" transform="translate(-229.415 -210.653)" opacity="0.1"/>
    <path id="Path_289" data-name="Path 289" d="M638.291,547.436l-5.388,5.388,72.1,72.1a11.561,11.561,0,0,1,2.573,12.43l2.141-2.141a11.561,11.561,0,0,0,0-16.35Z" transform="translate(-322.58 -292.085)" opacity="0.1"/>
    <path id="Path_290" data-name="Path 290" d="M146.542,577.639c0,30.452-18.1,41.085-40.435,41.085s-40.435-10.633-40.435-41.085,40.435-69.192,40.435-69.192S146.542,547.187,146.542,577.639Z" transform="translate(-62.587 -274.214)" fill="#ff7321"/>
    <path id="Path_291" data-name="Path 291" d="M64.29,512.581l17.235-31.53-17.17,27.532.186-11.46,11.878-22.811L64.591,494.091l.335-20.61L77.645,455.32,64.978,470.24l.209-37.792-1.258,47.887L51.049,460.62l12.724,23.755-1.2,23.018-.036-.611-14.908-20.83,14.862,22.989-.151,2.879-.027.043.012.236-3.057,30.716h4.085l.49-2.481L78.666,517.4,63.876,538.066Z" transform="translate(-21.829 -198.215)" fill="#3f3d56"/>
  </g>
</svg>
