<svg xmlns="http://www.w3.org/2000/svg" xmlns:xlink="http://www.w3.org/1999/xlink" width="585" height="457.739" viewBox="0 0 585 457.739">
  <defs>
    <linearGradient id="linear-gradient" y1="0.5" x2="1" y2="0.5" gradientUnits="objectBoundingBox">
      <stop offset="0" stop-color="gray" stop-opacity="0.251"/>
      <stop offset="0.54" stop-color="gray" stop-opacity="0.122"/>
      <stop offset="1" stop-color="gray" stop-opacity="0.102"/>
    </linearGradient>
  </defs>
  <g id="Group_101" data-name="Group 101" transform="translate(0.004 -0.003)">
    <ellipse id="Ellipse_22" data-name="Ellipse 22" cx="102.045" cy="19.331" rx="102.045" ry="19.331" transform="translate(103.161 410.214)" fill="#ff7321" opacity="0.1"/>
    <path id="Path_178" data-name="Path 178" d="M435.116,119.584c-37.5-1.3-73.222-13.409-107.329-26.656S259.9,65.01,223.291,57.993c-23.544-4.514-50.472-5.157-69.438,7.452-18.259,12.169-24.158,33.117-27.328,52.569-2.387,14.637-3.79,30.046,2.747,43.75,4.543,9.515,12.6,17.512,18.172,26.627,19.395,31.709,5.685,70.811-15.327,101.772-9.851,14.521-21.3,28.394-28.9,43.837s-11.126,33.2-4.468,48.994c6.594,15.646,22.315,27.374,39.346,35.632,34.589,16.776,75.331,21.574,115.088,24.3,87.981,6.015,176.425,3.413,264.638.8,32.647-.962,65.434-1.941,97.548-6.988,17.836-2.8,36.246-7.255,49.2-18C681,405.1,685.07,382.015,674.055,364.92c-18.473-28.684-69.536-35.805-82.464-66.581-7.1-16.944.191-35.811,10.523-51.521,22.159-33.708,59.3-63.278,61.25-101.8,1.344-26.459-16.509-52.958-44.115-65.48-28.933-13.125-69.061-11.474-90.4,10.251C506.86,112.132,468.233,120.737,435.116,119.584Z" transform="translate(-95.23 -55.03)" fill="#ff7321" opacity="0.1"/>
    <path id="Path_179" data-name="Path 179" d="M499.035,305.066,481.286,293.1h0l8.953-13.328-46.879-3.738-16.845,13.026L405.427,277.24l-17.587,2.115-.209-4.636a130.835,130.835,0,0,0-1.454-14.429c.075-1.449.127-3.112.122-4.92,0-7.62-1.031-17.72-5.563-24.454l1.043-9.376-8.46-10a63.952,63.952,0,0,1,4.636-7.8c.29-.417.579-.823.892-1.217a21.04,21.04,0,0,0,19.644-20.861,13.355,13.355,0,0,0-.058-1.524,5.528,5.528,0,0,0-.064-.614c1.072.579,2.156,1.159,3.239,1.738.2.29.435.579.69.921h0l.052.064.324.4.1.122c.116.139.238.272.359.411l.081.093c.307.342.632.69.979,1.031a1.046,1.046,0,0,1,.116.11l.435.406.122.11c.371.33.765.649,1.159.95l.128.093.5.342.162.1c.191.116.388.238.579.348l.07.041c.226.122.458.238.69.348l.116.046q.3.127.579.243l.18.064c.2.07.4.133.608.191l.127.035c.255.064.51.116.771.156h.029a6.3,6.3,0,0,0,.742.075h.168a6.371,6.371,0,0,0,.666,0h.145a6.863,6.863,0,0,0,.829-.1,9.144,9.144,0,0,0,3.651-1.31,3.186,3.186,0,0,0,.742-.69,2.732,2.732,0,0,0-.116-3.181h0c-.452-1.078-3.384-1.837-3.384-1.837s-9.271-3.871-9.271-6.954-2.318-19.076-26.244-22.733c0,0-15.565-.875-19.94,7.458l-.093.974c-1.286.805-2.353,2.422-3.622,2.9a5.917,5.917,0,0,0-1.57.579v-.11h0a1.493,1.493,0,0,0-.353.458,4.635,4.635,0,0,0-.481,1.738,6.547,6.547,0,0,1-.759,2.1,4.67,4.67,0,0,1-.348.533h0l-.1.156a4.23,4.23,0,0,0,1.97-.319,9.81,9.81,0,0,1-.579,2.318,1.924,1.924,0,0,0,1.785-1.066v-.046l.075-.1a4.884,4.884,0,0,0,.359-.84l-.064.07c.116-.377.22-.759.348-1.13a1.775,1.775,0,0,1,.284-.579,1.4,1.4,0,0,1,1.2-.4l-.238,5.024h.1a6.853,6.853,0,0,1-.51,1.055c-.823,1.333-2.318,2.243-2.868,3.7a5.448,5.448,0,0,0-.267,2.19c0,.435.052.875.087,1.31v-.035a4.887,4.887,0,0,1-.522,3.193c-.429.637-1.118,1.118-1.356,1.843a1.794,1.794,0,0,0-.087.626,7.032,7.032,0,0,0,.394,1.86.08.08,0,0,0,0-.035,2.829,2.829,0,0,1,.1,1.368c-.261,1.159-1.669,2.127-1.6,3.233a1.246,1.246,0,0,0,.064.429,2.347,2.347,0,0,0,1.31,1.159,5.1,5.1,0,0,0,2.944.649,3.871,3.871,0,0,0,1.1-.377c-.406.933-.823,1.854-1.246,2.729-.064.139-.133.278-.2.417,0,0-3.581-2.393-5.615,2.486a10.824,10.824,0,0,0-1.257,3.268,7.771,7.771,0,0,1-.429,1.344,8.651,8.651,0,0,1-3.871,3.477c-4.149,1.9-20.907,22.8-21.2,28.214a31.569,31.569,0,0,1-1.066,6.247,37.172,37.172,0,0,0-1,14.771,28.255,28.255,0,0,0,1.026,4.711c1.779,5.406,2.967,15.5,2.967,15.5l1.924,17.512a49.848,49.848,0,0,0,.313,7.238c-1.964,2.243-9.851,11.589-6.838,14.133,2.318,2,6.374,1.675,8.652,1.263-1.918,4.746-4.937,13-5.337,18.665-.579,8.385.991,19.493,3.477,23.758s10.772,15.205,10.772,15.205S335.943,389,338.9,394.45s4.155,16.764,4.155,16.764,2.764,9.55,1.379,13.061,2.567,6.432-1.582,8.767-9.457,54.968-9.457,54.968-2.138,34.5,0,36.252a2.173,2.173,0,0,0,.365.214v11.589s-1.483,2.434,4.549,2.926c4.132.33,15.843,1.078,22.791,1.512l5.383.336s12.748,2.538,18.381,0,15.617-2.48,14.133-9.185a19.068,19.068,0,0,0-.788-2.683c-1.628-4.161-4.392-4.636-9.486-5.795-.3-.064-.579-.122-.84-.168-5.366-.933-7.128,1.565-10.135-1.686-2.613-2.81-10.935-5.957-13.768-6.954.07-.209.156-.411.226-.626a4.243,4.243,0,0,1-2.15-1.049l7.678.487,4.572.284s10.836,2.161,15.646,0,13.27-2.1,12.007-7.8a16.332,16.332,0,0,0-.666-2.283c-1.385-3.535-3.738-3.923-8.066-4.9-.249-.052-.481-.1-.713-.145-4.56-.794-6.055,1.327-8.611-1.431-2.19-2.353-9.1-4.989-11.589-5.887,0-1.286-1.738-3.118-2.834-4.954-1.286-2.144,1.089-9.648,1.089-9.648l1.356-31.135a6.011,6.011,0,0,1,1.623-.464s6.131-5.853,4.746-12.088a40.048,40.048,0,0,1-.44-5.7c2.016-1.872,4.792-4.636,5.58-6.339,1.286-2.776,0-16.225,0-16.225V353.041l10.257,1.037,9.306.956,2.834.29,9.306.939,21.388,2.161,19.273-3.651,8.339-1.576,17.147-3.245V308ZM357.87,166.046l-1.194-.127C357.071,165.936,357.488,166.011,357.87,166.046Z" transform="translate(-188.951 -95.448)" fill="url(#linear-gradient)"/>
    <path id="Path_180" data-name="Path 180" d="M525.944,448.544c-5.795,8.292-26.627,3.9-26.627,3.9l-16.144-15.107L481,435.292l3.645-7.742s1.159.319,3.147.887C498.228,431.467,530.834,441.573,525.944,448.544Z" transform="translate(-257.46 -211.684)" fill="#efb7b9"/>
    <path id="Path_181" data-name="Path 181" d="M487.78,428.437a34,34,0,0,1-4.607,8.9L481,435.292l3.645-7.742S485.815,427.869,487.78,428.437Z" transform="translate(-257.46 -211.684)" opacity="0.1"/>
    <path id="Path_182" data-name="Path 182" d="M386.862,278.243s-14.881,6.6-14.151,22.808a267.218,267.218,0,0,0,3.407,31.152s-3.042,24.39,9.625,30.677,24.39,11.456,24.39,11.456,19.818,2.132,22.281,3.013,10.158-12.586,8.738-14.684-19.609-6.5-21.927-10-7.678-5.661-7.678-5.661-5.534-3.349-5.911-6.374,1.084-5.279,1.455-6.606,1.31-14.139,1.31-14.139S414.647,274.285,386.862,278.243Z" transform="translate(-211.91 -148.794)" fill="#dce6f2"/>
    <path id="Path_183" data-name="Path 183" d="M400.621,370.39s-20.415,3.419-18.439,10.564A43.28,43.28,0,0,1,400.621,370.39Z" transform="translate(-215.847 -187.647)" opacity="0.1"/>
    <path id="Path_184" data-name="Path 184" d="M407.611,375.38s-11.224,9.161-9.028,9.631S407.611,375.38,407.611,375.38Z" transform="translate(-222.681 -189.745)" opacity="0.1"/>
    <path id="Path_185" data-name="Path 185" d="M422.4,380.89s-3.007,6.16-1.159,5.743S422.4,380.89,422.4,380.89Z" transform="translate(-232.078 -192.063)" opacity="0.1"/>
    <path id="Path_186" data-name="Path 186" d="M443.526,366.672l-1.24-.353a3.543,3.543,0,0,0,.162-2.532c-1.42-2.1-19.6-6.49-21.91-10s-7.678-5.661-7.678-5.661-5.534-3.349-5.911-6.374,1.084-5.279,1.454-6.606S409.714,321,409.714,321s6.229-45.6-21.556-41.641c0,0-14.881,6.606-14.156,22.814a266.506,266.506,0,0,0,3.413,31.152s-3.042,24.39,9.625,30.677,24.39,11.456,24.39,11.456,19.812,2.127,22.281,3.013c.933.336,2.619-1.4,4.271-3.778l.939.875,16.144,15.1s20.832,4.4,26.627-3.894C486.587,379.8,453.986,369.7,443.526,366.672Z" transform="translate(-212.453 -149.265)" opacity="0.1"/>
    <path id="Path_187" data-name="Path 187" d="M379.838,171.021a4.926,4.926,0,0,0-1.605.62c-.579.481-.579,1.3-.724,2.022a6.653,6.653,0,0,1-1.159,2.77,4.166,4.166,0,0,0,1.93-.319,9.929,9.929,0,0,1-.579,2.318,1.877,1.877,0,0,0,1.738-1.06,11.159,11.159,0,0,0,.724-2.034,1.676,1.676,0,0,1,.278-.579c.533-.632,1.524-.348,2.347-.267a3.854,3.854,0,0,0,3.523-1.692c.875-1.327.927-4.723-1.159-5.082C382.973,167.359,381.617,170.361,379.838,171.021Z" transform="translate(-213.451 -102.405)" fill="#965d7b"/>
    <g id="Group_99" data-name="Group 99" transform="translate(162.986 69.086)" opacity="0.1">
      <path id="Path_188" data-name="Path 188" d="M378.836,175.113c.052-.284.087-.579.151-.863h0a3.4,3.4,0,0,0-.724,2.022,6.369,6.369,0,0,1-.342,1.223,6.64,6.64,0,0,0,.916-2.382Z" transform="translate(-377.097 -174.25)"/>
      <path id="Path_189" data-name="Path 189" d="M378.424,182.318A9.637,9.637,0,0,0,379,180a4.149,4.149,0,0,1-1.837.319,6.706,6.706,0,0,1-.666,1.159,4.126,4.126,0,0,0,1.924-.313,9.636,9.636,0,0,1-.579,2.318,1.883,1.883,0,0,0,1.738-1.06,4.321,4.321,0,0,0,.348-.829A1.738,1.738,0,0,1,378.424,182.318Z" transform="translate(-376.5 -176.668)"/>
      <path id="Path_190" data-name="Path 190" d="M386.59,176.17c-.823-.081-1.819-.365-2.353.267a1.792,1.792,0,0,0-.278.579c-.052.151-.1.307-.139.464.55-.435,1.443-.2,2.19-.127a3.871,3.871,0,0,0,3.523-1.692,3.21,3.21,0,0,0,.388-.91,3.859,3.859,0,0,1-3.332,1.42Z" transform="translate(-379.578 -174.46)"/>
    </g>
    <path id="Path_191" data-name="Path 191" d="M315.066,201l8.837,10.627-1.153,10.726-10.68-16.718Z" transform="translate(-131.237 -84.525)" fill="#dce6f2"/>
    <path id="Path_192" data-name="Path 192" d="M323.9,211.627l-1.084,10.089-.07.637-9.637-15.089-1.037-1.628.3-.469L315.06,201l.6.719Z" transform="translate(-131.237 -84.525)" opacity="0.1"/>
    <path id="Path_193" data-name="Path 193" d="M409.065,219.867c-2.99.858-5.847,3.8-8.333,7.377a62.945,62.945,0,0,0-4.5,7.73c-.817,1.634-1.535,3.2-2.132,4.572l-.417.974c-1.008,2.382-1.57,3.975-1.57,3.975s-22.889-17.21-19.267-18.369c1.217-.388,2.816-3,4.4-6.281l.2-.417c1-2.109,1.988-4.462,2.863-6.675,1.791-4.549,3.118-8.5,3.118-8.5S418.191,217.259,409.065,219.867Z" transform="translate(-211.815 -117.78)" fill="#efb7b9"/>
    <path id="Path_194" data-name="Path 194" d="M459.26,202.58s5.285,9.561,12.383,8.257,4.178-5.134,4.178-5.134Z" transform="translate(-248.317 -117.078)" fill="#444053"/>
    <path id="Path_195" data-name="Path 195" d="M410.7,757.354c-4.682,2.138-15.269,0-15.269,0l-4.462-.278c-5.795-.371-15.5-1-18.926-1.275-5.007-.411-3.778-2.463-3.778-2.463V740.944l24.291-6.154s9.6,3.286,12.233,6.154c2.5,2.735,3.958.632,8.414,1.42.22.041.452.087.7.145,4.23.968,6.525,1.35,7.881,4.856a16.289,16.289,0,0,1,.655,2.26C423.684,755.268,415.374,755.228,410.7,757.354Z" transform="translate(-209.994 -340.888)" fill="#a36468"/>
    <path id="Path_196" data-name="Path 196" d="M421.777,752.861a18.15,18.15,0,0,1-2.735,1.4c-3.187,1.454-6.218,3.228-9.44,4.6a22.078,22.078,0,0,1-10.181,2.092c-1.825-.133-3.691-.58-5.435-.058a12.556,12.556,0,0,0-3.019,1.675c-5.795-.371-15.5-1-18.926-1.275-5.007-.411-3.778-2.463-3.778-2.463v-1.449c.18,0,.382-.052.614-.07a10.939,10.939,0,0,1,3.535.527c2.515.684,5.018,1.356,7.533,2.028a5.951,5.951,0,0,1,2.9-3.7,9.236,9.236,0,0,1,4.671-1.072c3.9.052,7.591,1.9,11.485,2.086a6.33,6.33,0,0,0,3.181-.533c.533-.267,1-.655,1.524-.951a11.125,11.125,0,0,1,2.625-.887,57.814,57.814,0,0,0,7.5-2.422c.7-.272,1.507-.765,1.414-1.507-.122-.985-1.669-1.1-2.074-2.005a1.159,1.159,0,0,1,.046-1.026c.22.041.452.087.7.145C418.127,748.973,420.421,749.355,421.777,752.861Z" transform="translate(-209.994 -346.384)" opacity="0.1"/>
    <path id="Path_197" data-name="Path 197" d="M396.707,801.257c-5.5,2.515-17.964,0-17.964,0l-5.244-.307c-6.791-.435-18.23-1.159-22.269-1.5-5.893-.487-4.445-2.9-4.445-2.9V781.943l28.585-7.243s11.3,3.865,14.394,7.243c2.938,3.216,4.636.742,9.9,1.669.261.046.533.1.817.168,4.978,1.159,7.678,1.593,9.272,5.719a18.6,18.6,0,0,1,.771,2.66C411.965,798.8,402.212,798.748,396.707,801.257Z" transform="translate(-200.952 -357.671)" fill="#a36468"/>
    <path id="Path_198" data-name="Path 198" d="M409.745,795.988a21.57,21.57,0,0,1-3.216,1.651c-3.749,1.71-7.319,3.8-11.108,5.412a26.039,26.039,0,0,1-11.983,2.463c-2.144-.156-4.34-.7-6.374-.069a14.779,14.779,0,0,0-3.564,1.993c-6.791-.435-18.23-1.159-22.269-1.5-5.893-.487-4.445-2.9-4.445-2.9v-1.7a7.232,7.232,0,0,1,.724-.081,12.713,12.713,0,0,1,4.161.62l8.86,2.388a7.011,7.011,0,0,1,3.436-4.352,10.813,10.813,0,0,1,5.5-1.263c4.589.064,8.93,2.237,13.513,2.457a7.481,7.481,0,0,0,3.732-.62c.632-.319,1.159-.776,1.8-1.118a12.6,12.6,0,0,1,3.089-1.043,69.368,69.368,0,0,0,8.785-2.851c.817-.325,1.773-.9,1.663-1.773-.145-1.159-1.964-1.3-2.445-2.364a1.4,1.4,0,0,1,.058-1.205c.261.046.533.1.817.168C405.451,791.411,408.152,791.863,409.745,795.988Z" transform="translate(-200.952 -364.16)" opacity="0.1"/>
    <path id="Path_199" data-name="Path 199" d="M397.769,647.54l-1.547,36.408s-2.318,7.435-1.06,9.561,3.378,4.248,2.608,5.505-10.042,14.852-13.038,9.637-5.951-27.815-5.951-27.815l2.764-27.913Z" transform="translate(-214.473 -304.197)" fill="#444053"/>
    <path id="Path_200" data-name="Path 200" d="M416.822,491l4.3,5.748v50s1.257,13.328,0,16.08-7.632,8.257-7.632,8.257l-5.36-27.525,1.159-29.118Z" transform="translate(-226.816 -238.367)" fill="#444053"/>
    <path id="Path_201" data-name="Path 201" d="M397.769,647.54l-1.547,36.408s-2.318,7.435-1.06,9.561,3.378,4.248,2.608,5.505-10.042,14.852-13.038,9.637-5.951-27.815-5.951-27.815l2.764-27.913Z" transform="translate(-214.473 -304.197)" opacity="0.1"/>
    <path id="Path_202" data-name="Path 202" d="M416.822,491l4.3,5.748v50s1.257,13.328,0,16.08-7.632,8.257-7.632,8.257l-5.36-27.525,1.159-29.118Z" transform="translate(-226.816 -238.367)" opacity="0.1"/>
    <path id="Path_203" data-name="Path 203" d="M387,444.107v27.044L382.177,492.2s-1.547,50.8-.2,56.979-4.636,11.978-4.636,11.978-3.477.388-3.477,3.089-5.795,10.43-5.795,10.43l.191,15.066s2.515,28.2-1.35,33.609,1.35,6.183,1.35,6.183c-4.827,15.837-28.006,12.169-30.1,10.43s0-35.927,0-35.927,5.18-52.152,9.237-54.47.2-5.215,1.547-8.692-1.35-12.94-1.35-12.94-1.159-11.207-4.056-16.613-2.515-20.281-2.515-20.281-8.113-10.819-10.523-15.066-3.964-15.257-3.384-23.567c.394-5.615,3.344-13.791,5.215-18.5.9-2.254,1.547-3.714,1.547-3.714l.55.145,31.651,8.286Z" transform="translate(-192.698 -212.799)" fill="#444053"/>
    <path id="Path_204" data-name="Path 204" d="M414.755,219.837c-2.99.858-5.847,3.8-8.333,7.377h-.649a20.7,20.7,0,0,1-17.964-10.39,20.382,20.382,0,0,1-1.82-4.143c1.791-4.549,3.118-8.5,3.118-8.5S423.882,217.23,414.755,219.837Z" transform="translate(-217.505 -117.751)" opacity="0.1"/>
    <path id="Path_205" data-name="Path 205" d="M425.812,191.155A20.716,20.716,0,1,1,387.057,181a20.248,20.248,0,0,1,2.19-3.164,20.965,20.965,0,0,1,4.763-4.184,20.716,20.716,0,0,1,31.772,15.982C425.795,190.146,425.812,190.651,425.812,191.155Z" transform="translate(-216.828 -103.555)" fill="#efb7b9"/>
    <path id="Path_206" data-name="Path 206" d="M403.392,265.985l-.069.637-9.637-15.066c-1.008,2.382-1.57,3.975-1.57,3.975s-22.889-17.233-19.267-18.392c1.217-.388,2.816-3,4.4-6.281l.2-.417c1.68,5.007,11.445,15.014,15.507,19.024.469.464.858.846,1.159,1.124l.62.579.324.324C396.531,253.016,402.766,259.738,403.392,265.985Z" transform="translate(-211.815 -128.794)" opacity="0.1"/>
    <path id="Path_207" data-name="Path 207" d="M388.739,316.983l-1.055,33.94-.185,6.044s-12.493-1.159-24.152-2.434c-9.387-1.026-18.236-2.132-19.6-2.781-1.738-.817-5.464-1.449-8.4-1.848-2.272-.307-4.056-.469-4.056-.469s-.666.2-1.692.382c-2.237.406-6.166.736-8.454-1.252-2.926-2.544,4.763-11.786,6.681-14.006l.423-.481-.724-6.693L325.64,310.03s-1.159-10-2.9-15.356a28.322,28.322,0,0,1-1-4.665,37.365,37.365,0,0,1,.973-14.637,31.922,31.922,0,0,0,1.043-6.195c.29-5.36,16.66-26.076,20.716-27.959a8.6,8.6,0,0,0,4.149-4.137,7.9,7.9,0,0,0,.632-1.8c1.738-7.533,6.137-4.543,6.137-4.543,1.06,5.893,17.477,21.493,17.477,21.493l.324.324c1.628,1.669,8.883,9.5,8.368,16.19a19.626,19.626,0,0,0,1.1,7.324,123.864,123.864,0,0,1,5.708,32.45Z" transform="translate(-189.959 -128.672)" fill="#dce6f2"/>
    <path id="Path_208" data-name="Path 208" d="M392.607,310.45s-4.056,9.851-7.1,11.445S394.056,325.255,392.607,310.45Z" transform="translate(-217.088 -162.44)" opacity="0.1"/>
    <path id="Path_209" data-name="Path 209" d="M396.651,342.2s-9.271,1.159-9.271,2.9S396.651,342.2,396.651,342.2Z" transform="translate(-218.09 -175.792)" opacity="0.1"/>
    <path id="Path_210" data-name="Path 210" d="M407.291,361.7s-13.473,28.684-17.239,29.553S407.291,361.7,407.291,361.7Z" transform="translate(-219.023 -183.993)" opacity="0.1"/>
    <path id="Path_211" data-name="Path 211" d="M392.593,254.5l-11.143,4.844L368,239.03a7.9,7.9,0,0,0,.632-1.8c1.738-7.533,6.137-4.543,6.137-4.543,1.06,5.893,17.477,21.493,17.477,21.493Z" transform="translate(-209.94 -129.492)" opacity="0.1"/>
    <path id="Path_212" data-name="Path 212" d="M393.593,252.5l-11.143,4.844L369,237.03a7.906,7.906,0,0,0,.632-1.8c1.738-7.533,6.137-4.543,6.137-4.543,1.06,5.893,17.477,21.493,17.477,21.493Z" transform="translate(-210.36 -128.651)" fill="#dce6f2"/>
    <path id="Path_213" data-name="Path 213" d="M391.868,382.906s-12.493-1.159-24.152-2.434l20.919,5.476v6.374c-.915.829-1.709,1.257-2.225,1.037-2.411-1.014-22.084-4.2-22.084-4.2s-11.427-5.795-23.758-12.748a9.519,9.519,0,0,1-.869-.545,13.7,13.7,0,0,1-3.651-3.656c-2.277-3.3-3.39-7.533-3.871-11.688a50.54,50.54,0,0,1-.3-7.174,58.815,58.815,0,0,1,.742-8.107,266.577,266.577,0,0,1-1.738-31.291c.145-16.225,15.356-22.02,15.356-22.02,27.959-2.463,19.29,42.736,19.29,42.736s-1.617,12.748-2.057,14.052-2.022,3.477-1.808,6.519,5.557,6.681,5.557,6.681,5.215,2.445,7.365,6.067c1.565,2.671,11.728,6.293,17.471,8.878Z" transform="translate(-194.329 -154.611)" opacity="0.1"/>
    <path id="Path_214" data-name="Path 214" d="M423.7,176.334a6.559,6.559,0,0,1-.579,2.77,17.129,17.129,0,0,1-1.031,2.063,9.5,9.5,0,0,1-2.538,3.152,12.983,12.983,0,0,1-4.636,1.611,6.708,6.708,0,0,0-4.19,2.376,8.31,8.31,0,0,0-.979,2.839,6.107,6.107,0,0,1-1.159,2.747,2.277,2.277,0,0,1-2.712.649,2.741,2.741,0,0,1-1.049-1.35,19.363,19.363,0,0,1-1.1-4.746,10.1,10.1,0,0,0-1.628-4.549,4.073,4.073,0,0,0-4.276-1.64,4.12,4.12,0,0,0-2.318,2.248,12.891,12.891,0,0,0-.875,3.2q-1.078,5.9-2.544,11.729a1.077,1.077,0,0,1-.191.44.834.834,0,0,1-.579.243c-1.3.174-2.544-.736-3.854-.637a2.214,2.214,0,0,0-.4.064A20.7,20.7,0,0,1,389.16,175.9l.1-.029a6.247,6.247,0,0,0,2.318-1.46,24.46,24.46,0,0,0,2.318-2.683l.464-.58a26.431,26.431,0,0,1,4.52-4.294,4.636,4.636,0,0,1,1.541-.834,4.567,4.567,0,0,1,1.46-.046,36.839,36.839,0,0,0,6.032.226,38.7,38.7,0,0,1,4.236-.429c3.668.1,6.8,2.695,9.115,5.534A8.572,8.572,0,0,1,423.7,176.334Z" transform="translate(-216.798 -101.598)" opacity="0.1"/>
    <path id="Path_215" data-name="Path 215" d="M379.991,179.188c-.805,1.321-2.26,2.219-2.8,3.668-.8,2.1.551,4.723-.69,6.6-.411.632-1.089,1.1-1.321,1.825-.394,1.223.684,2.526.406,3.784s-1.935,2.318-1.495,3.546a2.318,2.318,0,0,0,1.275,1.159,4.984,4.984,0,0,0,2.9.643c1.582-.261,2.758-1.814,4.363-1.93,1.3-.093,2.55.811,3.848.643a.869.869,0,0,0,.579-.249,1,1,0,0,0,.191-.44q1.46-5.824,2.55-11.728a12.631,12.631,0,0,1,.869-3.2,4.154,4.154,0,0,1,2.318-2.248,4.087,4.087,0,0,1,4.277,1.64,10.037,10.037,0,0,1,1.634,4.549,19.621,19.621,0,0,0,1.089,4.746,2.769,2.769,0,0,0,1.055,1.356,2.27,2.27,0,0,0,2.706-.649,6.044,6.044,0,0,0,1.159-2.752,8.276,8.276,0,0,1,.979-2.834,6.723,6.723,0,0,1,4.19-2.376,13.111,13.111,0,0,0,4.636-1.617,9.537,9.537,0,0,0,2.538-3.147,9.263,9.263,0,0,0,1.588-4.839,8.883,8.883,0,0,0-2.376-5.012c-2.318-2.839-5.453-5.43-9.121-5.528a36.043,36.043,0,0,0-4.236.429,36.258,36.258,0,0,1-6.032-.232,4.74,4.74,0,0,0-1.46.052,4.369,4.369,0,0,0-1.536.834,26.442,26.442,0,0,0-4.526,4.288,33.218,33.218,0,0,1-2.793,3.245,6.287,6.287,0,0,1-2.318,1.466c-.579.162-1.159.046-1.709.226C381.011,175.648,380.785,177.879,379.991,179.188Z" transform="translate(-212.468 -101.19)" fill="#965d7b"/>
    <path id="Path_216" data-name="Path 216" d="M471.643,210.832c-4.636.852-8.478-2.9-10.6-5.632a22.738,22.738,0,0,1-1.779-2.619l15.912,3,.643.122S478.742,209.534,471.643,210.832Z" transform="translate(-248.317 -117.078)" opacity="0.1"/>
    <g id="Group_100" data-name="Group 100" transform="translate(161.516 73.577)" opacity="0.1">
      <path id="Path_217" data-name="Path 217" d="M376.362,212.555a4.826,4.826,0,0,0-.336-2.225c0,.058-.052.116-.07.174a4.313,4.313,0,0,0,.3,2.387A1.738,1.738,0,0,0,376.362,212.555Z" transform="translate(-374.764 -193.914)"/>
      <path id="Path_218" data-name="Path 218" d="M379.074,197.8a12.872,12.872,0,0,0,.046,2.4A12.911,12.911,0,0,0,379.074,197.8Z" transform="translate(-376.098 -188.644)"/>
      <path id="Path_219" data-name="Path 219" d="M417.184,185.738a9.5,9.5,0,0,1-2.538,3.152,12.945,12.945,0,0,1-4.636,1.611,6.693,6.693,0,0,0-4.19,2.376,8.349,8.349,0,0,0-.979,2.839,6.066,6.066,0,0,1-1.159,2.752,2.262,2.262,0,0,1-2.706.649,2.77,2.77,0,0,1-1.055-1.356,19.293,19.293,0,0,1-1.089-4.746,10.012,10.012,0,0,0-1.634-4.549,4.073,4.073,0,0,0-4.276-1.64,4.138,4.138,0,0,0-2.318,2.248,12.631,12.631,0,0,0-.869,3.2q-1.084,5.9-2.55,11.728a1,1,0,0,1-.191.44.869.869,0,0,1-.58.249c-1.3.168-2.544-.736-3.848-.643-1.605.116-2.781,1.669-4.363,1.924a4.9,4.9,0,0,1-2.9-.643,3.1,3.1,0,0,1-1.06-.753,1.565,1.565,0,0,0-.214,1.35,2.26,2.26,0,0,0,1.275,1.159,4.9,4.9,0,0,0,2.9.643c1.582-.255,2.758-1.808,4.363-1.924,1.3-.093,2.55.811,3.848.643a.869.869,0,0,0,.579-.249,1,1,0,0,0,.191-.44q1.46-5.795,2.55-11.728a12.634,12.634,0,0,1,.869-3.2,4.138,4.138,0,0,1,2.318-2.248,4.077,4.077,0,0,1,4.276,1.64,10.037,10.037,0,0,1,1.634,4.549,19.62,19.62,0,0,0,1.089,4.746,2.77,2.77,0,0,0,1.055,1.356,2.27,2.27,0,0,0,2.706-.649,6.067,6.067,0,0,0,1.159-2.752,8.35,8.35,0,0,1,.979-2.839,6.75,6.75,0,0,1,4.19-2.376,13.217,13.217,0,0,0,4.636-1.611,9.5,9.5,0,0,0,2.538-3.152,9.228,9.228,0,0,0,1.588-4.833,6.253,6.253,0,0,0-.07-.661A11.387,11.387,0,0,1,417.184,185.738Z" transform="translate(-373.964 -182)"/>
    </g>
    <path id="Path_220" data-name="Path 220" d="M425.106,181.046a20.473,20.473,0,0,1,2.579,8.605c-5.163-2.9-10.019-6.079-12.47-7.185-4.271-1.93-20.241-1.64-26.244-1.46a20.245,20.245,0,0,1,2.19-3.164,20.966,20.966,0,0,1,4.781-4.184,20.728,20.728,0,0,1,29.194,7.377Z" transform="translate(-218.758 -103.558)" opacity="0.1"/>
    <path id="Path_221" data-name="Path 221" d="M473.092,208.375c-2.787.858-7.336-.8-12.053-3.176a22.738,22.738,0,0,1-1.779-2.619l15.912,3C476.227,206.3,476.493,207.326,473.092,208.375Z" transform="translate(-248.317 -117.078)" opacity="0.1"/>
    <path id="Path_222" data-name="Path 222" d="M406.608,154.061s-15.211-.869-19.488,7.388l-.69,7.319-1.159-.127-.232,4.978s23.248-1.014,28.539,1.373,21.73,14.417,28.319,12.389-.58-3.911-.58-3.911-9.069-3.842-9.069-6.855S430,157.683,406.608,154.061Z" transform="translate(-217.106 -96.663)" fill="#444053"/>
    <path id="Path_223" data-name="Path 223" d="M371.63,622.28s9.706,9.417,13.907,8.692C385.537,630.972,373.658,629.958,371.63,622.28Z" transform="translate(-211.466 -293.574)" opacity="0.1"/>
    <path id="Path_224" data-name="Path 224" d="M368.13,629.81s.869,4.844,3.187,4.369S368.13,629.81,368.13,629.81Z" transform="translate(-209.994 -296.741)" opacity="0.1"/>
    <path id="Path_225" data-name="Path 225" d="M385.874,769.53s-13.78,10.72-11.456,11.01S385.874,769.53,385.874,769.53Z" transform="translate(-212.528 -355.497)" opacity="0.1"/>
    <path id="Path_226" data-name="Path 226" d="M330.96,342.061l44.619-7.261v42.243l-42.394-2.219Z" transform="translate(-139.18 -140.792)" fill="#ff7321"/>
    <path id="Path_227" data-name="Path 227" d="M330.96,342.061l44.619-7.261v42.243l-42.394-2.219Z" transform="translate(-139.18 -140.792)" opacity="0.05"/>
    <path id="Path_228" data-name="Path 228" d="M407.96,334.8l53.508,4-2.961,36.762-50.547,1.478Z" transform="translate(-171.561 -140.792)" fill="#ff7321"/>
    <path id="Path_229" data-name="Path 229" d="M407.96,334.8l53.508,4-2.961,36.762-50.547,1.478Z" transform="translate(-171.561 -140.792)" opacity="0.1"/>
    <path id="Path_230" data-name="Path 230" d="M424.411,312.55,407.96,325.443l53.508,4,8.744-13.195Z" transform="translate(-171.561 -131.435)" fill="#ff7321"/>
    <path id="Path_231" data-name="Path 231" d="M303.08,319.481l40.169-4.891L363.855,326.3l-44.619,7.261Z" transform="translate(-127.456 -132.293)" fill="#ff7321"/>
    <path id="Path_232" data-name="Path 232" d="M385.361,351.039v57.756l-20.9-2.144-9.092-.927-2.77-.29-9.086-.933-12.551-1.286V347.33l44.613,3.036Z" transform="translate(-139.18 -146.061)" fill="#ff7321"/>
    <path id="Path_233" data-name="Path 233" d="M468.567,341.71v56.324l-16.752,3.216-8.147,1.565-18.827,3.616V348.675Z" transform="translate(-178.66 -143.698)" fill="#ff7321"/>
    <path id="Path_234" data-name="Path 234" d="M468.567,341.71v56.324l-16.752,3.216-8.147,1.565-18.827,3.616V348.675Z" transform="translate(-178.66 -143.698)" opacity="0.05"/>
    <path id="Path_235" data-name="Path 235" d="M303.08,359.487l16.156-12.157,54.4,3.709-8.008,13.49Z" transform="translate(-127.456 -146.061)" fill="#ff7321"/>
    <path id="Path_236" data-name="Path 236" d="M303.08,359.487l16.156-12.157,54.4,3.709-8.008,13.49Z" transform="translate(-127.456 -146.061)" fill="#fff" opacity="0.1"/>
    <path id="Path_237" data-name="Path 237" d="M468.567,341.71l-43.727,6.965,14.232,12.748,46.838-7.858Z" transform="translate(-178.66 -143.698)" fill="#ff7321"/>
    <path id="Path_238" data-name="Path 238" d="M468.567,341.71l-43.727,6.965,14.232,12.748,46.838-7.858Z" transform="translate(-178.66 -143.698)" fill="#fff" opacity="0.1"/>
    <path id="Path_239" data-name="Path 239" d="M465.477,435.465l-8.147,1.565V424.994l7.632-1.924Z" transform="translate(-192.323 -177.912)" fill="#fff" opacity="0.1"/>
    <path id="Path_240" data-name="Path 240" d="M382.172,435.96v7.962l-9.092-.927V435.96Z" transform="translate(-156.893 -183.333)" fill="#fff" opacity="0.1"/>
    <path id="Path_241" data-name="Path 241" d="M361.706,440.29v4.236l-9.086-.933v-3.3Z" transform="translate(-148.289 -185.154)" fill="#fff" opacity="0.1"/>
    <path id="Path_242" data-name="Path 242" d="M478.581,466.879c-6.229,7.968-26.8,2.463-26.8,2.463l-15.286-15.947-2.074-2.161,4.056-7.533s1.159.382,3.094,1.055C451.816,448.336,483.826,460.174,478.581,466.879Z" transform="translate(-237.871 -218.476)" opacity="0.1"/>
    <path id="Path_243" data-name="Path 243" d="M477.581,464.879c-6.229,7.968-26.8,2.463-26.8,2.463l-15.286-15.947-2.075-2.161,4.056-7.533s1.159.382,3.094,1.055C450.816,446.336,482.826,458.174,477.581,464.879Z" transform="translate(-237.451 -217.635)" fill="#efb7b9"/>
    <path id="Path_244" data-name="Path 244" d="M440.531,442.755a34.254,34.254,0,0,1-5.076,8.64l-2.074-2.161,4.056-7.533S438.6,442.082,440.531,442.755Z" transform="translate(-237.434 -217.635)" opacity="0.1"/>
    <path id="Path_245" data-name="Path 245" d="M347.235,287.928s-15.211,5.795-15.356,22.02a266.593,266.593,0,0,0,1.738,31.291s-4.346,24.193,7.968,31.146,23.758,12.748,23.758,12.748,19.673,3.187,22.089,4.2,10.813-12.024,9.509-14.2S377.727,367.6,375.6,363.983s-7.365-6.061-7.365-6.061-5.343-3.645-5.557-6.687,1.362-5.215,1.808-6.519,2.063-14.052,2.063-14.052S375.194,285.436,347.235,287.928Z" transform="translate(-194.749 -152.927)" fill="#dce6f2"/>
    <path id="Path_246" data-name="Path 246" d="M356.544,380.7s-20.571,2.318-18.978,9.561A43.277,43.277,0,0,1,356.544,380.7Z" transform="translate(-197.104 -191.983)" opacity="0.1"/>
    <path id="Path_247" data-name="Path 247" d="M363.271,385.7s-11.676,8.547-9.532,9.127S363.271,385.7,363.271,385.7Z" transform="translate(-203.832 -194.085)" opacity="0.1"/>
    <path id="Path_248" data-name="Path 248" d="M377.91,391.7s-3.332,5.992-1.449,5.679S377.91,391.7,377.91,391.7Z" transform="translate(-213.255 -196.608)" opacity="0.1"/>
    <path id="Path_249" data-name="Path 249" d="M734.735,167.4s-22.02-1.327-19.447,14.122a3.769,3.769,0,0,0,1.959,3.969s.041-1.159,2.26-.759a10.146,10.146,0,0,0,2.393.116,4.966,4.966,0,0,0,2.932-1.211h0s6.194-2.555,8.605-12.685c0,0,1.785-2.214,1.738-2.781l-3.72,1.594s1.269,2.683.267,4.914c0,0-.116-4.815-.835-4.705-.145,0-1.93.933-1.93.933s2.185,4.671.533,8.072c0,0,.626-5.76-1.217-7.736l-2.619,1.53s2.556,4.827.823,8.767c0,0,.446-6.044-1.373-8.4l-2.376,1.849s2.4,4.763.939,8.031c0,0-.191-7.035-1.454-7.568a14.336,14.336,0,0,0-2.388,2.584s1.64,3.477.62,5.279c0,0-.626-4.688-1.159-4.711,0,0-2.069,3.106-2.283,5.215a11.274,11.274,0,0,1,1.779-5.528,6.206,6.206,0,0,0-3.164,1.64s.319-2.2,3.674-2.387a15.854,15.854,0,0,1,2.167-2.5,13.587,13.587,0,0,0-5.36.62s1.779-2.069,5.974-1.159l2.318-1.912s-4.392-.579-6.258.064c0,0,2.144-1.831,6.89-.5l2.55-1.524a22.894,22.894,0,0,0-5.974-.516s2.353-1.269,6.722.1l1.825-.817s-2.747-.539-3.546-.626-.846-.307-.846-.307a9.48,9.48,0,0,1,5.151.579S734.816,167.643,734.735,167.4Z" transform="translate(-355.897 -102.271)" fill="#ff7321"/>
    <path id="Path_250" data-name="Path 250" d="M850.2,300.739s-22.02-1.327-19.447,14.122a3.768,3.768,0,0,0,1.959,3.969s.041-1.159,2.266-.759a10.147,10.147,0,0,0,2.393.116,4.961,4.961,0,0,0,2.9-1.205h0s6.2-2.561,8.611-12.69c0,0,1.779-2.208,1.71-2.776l-3.72,1.588s1.269,2.683.272,4.914c0,0-.122-4.815-.834-4.705-.145,0-1.935.933-1.935.933s2.19,4.676.539,8.072c0,0,.626-5.76-1.223-7.736l-2.59,1.512s2.555,4.827.823,8.767c0,0,.446-6.044-1.373-8.4l-2.37,1.854s2.4,4.757.939,8.026c0,0-.191-7.035-1.454-7.568a14.535,14.535,0,0,0-2.393,2.584s1.646,3.477.626,5.279c0,0-.626-4.688-1.159-4.711,0,0-2.069,3.106-2.283,5.215a11.312,11.312,0,0,1,1.785-5.528,6.234,6.234,0,0,0-3.17,1.64s.324-2.2,3.68-2.387a14.465,14.465,0,0,1,2.167-2.5,13.588,13.588,0,0,0-5.36.62s1.779-2.069,5.969-1.13l2.318-1.912s-4.4-.579-6.258.064c0,0,2.144-1.831,6.89-.5l2.55-1.524a23.218,23.218,0,0,0-5.98-.516s2.358-1.269,6.728.1l1.825-.817s-2.747-.539-3.552-.626-.846-.307-.846-.307a9.5,9.5,0,0,1,5.157.579S850.265,300.983,850.2,300.739Z" transform="translate(-404.451 -158.345)" fill="#ff7321" opacity="0.1"/>
    <path id="Path_251" data-name="Path 251" d="M622.7,261.284s5.07-21.493-10.6-21.568a3.764,3.764,0,0,0-4.242,1.252s1.118.238.359,2.358a10.313,10.313,0,0,0-.522,2.318,4.976,4.976,0,0,0,.69,3.089h0s1.466,6.548,11.01,10.651c0,0,1.877,2.132,2.445,2.156l-.927-3.935s-2.862.794-4.891-.579c0,0,4.769.7,4.775,0,0-.145-.58-2.063-.58-2.063s-4.978,1.356-8.049-.852c0,0,5.569,1.6,7.834.122l-1.043-2.851s-5.215,1.7-8.785-.684c0,0,5.882,1.472,8.512.081l-1.42-2.654s-5.1,1.553-8.072-.446c0,0,6.954,1.008,7.707-.139a14.4,14.4,0,0,0-2.138-2.8s-3.685,1.031-5.308-.284c0,0,4.723.18,4.833-.319,0,0-2.706-2.567-4.769-3.146a11.356,11.356,0,0,1,5.151,2.7,6.252,6.252,0,0,0-1.078-3.4s2.109.7,1.738,4.056a14.434,14.434,0,0,1,2.092,2.561,13.625,13.625,0,0,0,.3-5.389s1.739,2.109.1,6.079l1.483,2.637s1.344-4.23,1-6.177c0,0,1.443,2.422-.684,6.872L620.7,253.7a23.206,23.206,0,0,0,1.524-5.795s.852,2.538-1.252,6.612l.5,1.935s1-2.613,1.217-3.39.446-.782.446-.782a9.493,9.493,0,0,1-1.443,4.983S622.454,261.313,622.7,261.284Z" transform="translate(-310.73 -132.605)" fill="#ff7321" opacity="0.1"/>
    <path id="Path_252" data-name="Path 252" d="M532.209,285.69s-17.685-13.229-24.007,1.1a3.771,3.771,0,0,0-.545,4.392s.661-.933,2.318.614a10.144,10.144,0,0,0,1.935,1.414,4.972,4.972,0,0,0,3.112.579h0s6.583,1.269,14.162-5.864c0,0,2.706-.869,2.961-1.379l-3.993-.7s-.417,2.938-2.474,4.253c0,0,2.544-4.091,1.883-4.387-.133-.064-2.127-.29-2.127-.29s-.742,5.111-3.987,7.041c0,0,3.691-4.468,3.233-7.133l-3.031-.162s-.516,5.441-4.132,7.782c0,0,3.691-4.8,3.477-7.771l-3,.243s-.608,5.291-3.627,7.214c0,0,3.7-5.98,2.944-7.116a14.567,14.567,0,0,0-3.419.84s-.527,3.79-2.382,4.752c0,0,2.057-4.259,1.64-4.555,0,0-3.436,1.454-4.786,3.112a11.316,11.316,0,0,1,4.532-3.639,6.241,6.241,0,0,0-3.546-.371s1.472-1.657,4.381.029a14.629,14.629,0,0,1,3.187-.9,13.561,13.561,0,0,0-4.821-2.428s2.631-.753,5.615,2.318l3.008-.307s-3.344-2.9-5.262-3.384c0,0,2.8-.353,6.026,3.367l2.967.133a23.133,23.133,0,0,0-4.705-3.72s2.66.232,5.557,3.784l1.976.319s-2-1.959-2.625-2.469-.539-.724-.539-.724a9.522,9.522,0,0,1,3.993,3.315S532.134,285.928,532.209,285.69Z" transform="translate(-268.459 -149.687)" fill="#ff7321" opacity="0.1"/>
    <path id="Path_253" data-name="Path 253" d="M633.819,73.578s-17.685-13.235-24.007,1.1a3.771,3.771,0,0,0-.545,4.392s.661-.933,2.318.614a10.309,10.309,0,0,0,1.941,1.408,4.966,4.966,0,0,0,3.112.579h0s6.583,1.269,14.162-5.87c0,0,2.706-.863,2.955-1.379l-3.993-.69s-.411,2.938-2.474,4.253c0,0,2.55-4.091,1.889-4.387-.133-.064-2.127-.29-2.127-.29s-.765,5.123-4.01,7.041c0,0,3.685-4.468,3.233-7.133l-3.031-.162s-.522,5.441-4.132,7.776c0,0,3.691-4.8,3.477-7.771l-3,.243s-.614,5.3-3.633,7.22c0,0,3.708-5.98,2.949-7.116a14.566,14.566,0,0,0-3.419.84s-.527,3.79-2.382,4.752c0,0,2.057-4.259,1.64-4.56,0,0-3.436,1.46-4.786,3.118a11.266,11.266,0,0,1,4.532-3.639,6.2,6.2,0,0,0-3.552-.371s1.478-1.657,4.387.029a14.311,14.311,0,0,1,3.187-.9,13.637,13.637,0,0,0-4.821-2.434s2.625-.748,5.609,2.318l3.007-.307s-3.338-2.9-5.262-3.39c0,0,2.8-.348,6.032,3.373l2.967.127a22.891,22.891,0,0,0-4.711-3.714s2.666.232,5.563,3.784l1.97.319s-2.005-1.935-2.631-2.434-.539-.719-.539-.719a9.5,9.5,0,0,1,3.993,3.315S633.72,73.8,633.819,73.578Z" transform="translate(-311.189 -60.487)" fill="#ff7321" opacity="0.1"/>
    <path id="Path_254" data-name="Path 254" d="M751.681,95.943s-7.07-20.925-20.4-12.7a3.809,3.809,0,0,0-2.938,3.309s1.072-.394,1.547,1.808a10.435,10.435,0,0,0,.794,2.266,5.018,5.018,0,0,0,2.225,2.254h0s4.705,4.781,15,3.2c0,0,2.718.823,3.216.539l-2.9-2.845s-2.005,2.185-4.45,2.1c0,0,4.421-1.924,4.056-2.544-.075-.122-1.588-1.437-1.588-1.437s-3.512,3.784-7.278,3.535c0,0,5.569-1.588,6.7-4.056l-2.4-1.849s-3.512,4.184-7.817,4.056c0,0,5.795-1.86,7.261-4.433l-2.608-1.5s-3.477,4.016-7.081,3.888c0,0,6.444-2.822,6.461-4.19a14.485,14.485,0,0,0-3.291-1.246s-2.584,2.822-4.636,2.567c0,0,4.1-2.347,3.929-2.828,0,0-3.651-.748-5.708-.145a11.294,11.294,0,0,1,5.795-.435,6.252,6.252,0,0,0-2.718-2.318s2.156-.527,3.6,2.509a14.591,14.591,0,0,1,3.129,1.066,13.619,13.619,0,0,0-2.59-4.734s2.59.875,3.3,5.111l2.654,1.449s-1.1-4.294-2.416-5.795c0,0,2.509,1.3,3.054,6.195l2.376,1.791a23.037,23.037,0,0,0-1.773-5.737s2.063,1.7,2.434,6.276l1.443,1.379s-.533-2.747-.753-3.523-.041-.829-.041-.829a9.556,9.556,0,0,1,1.408,5S751.478,96.093,751.681,95.943Z" transform="translate(-361.474 -66.087)" fill="#ff7321" opacity="0.1"/>
    <path id="Path_255" data-name="Path 255" d="M674.3,108.229s-21.962-2.445-20.148,13.137a3.761,3.761,0,0,0,1.738,4.056s.1-1.159,2.318-.637a10.662,10.662,0,0,0,2.388.238,4.984,4.984,0,0,0,2.984-1.06h0s6.322-2.243,9.271-12.238c0,0,1.889-2.115,1.848-2.689l-3.8,1.4s1.159,2.741,0,4.92c0,0,.122-4.815-.579-4.74-.145,0-1.976.834-1.976.834s1.947,4.781.127,8.113c0,0,.916-5.725-.829-7.788l-2.695,1.391s2.318,4.954.377,8.8c0,0,.753-6.015-.944-8.454l-2.463,1.738s2.156,4.873.527,8.066c0,0,.168-7.035-1.066-7.632a15.075,15.075,0,0,0-2.521,2.457s1.466,3.535.359,5.3c0,0-.388-4.711-.9-4.757,0,0-2.225,3-2.55,5.111a11.282,11.282,0,0,1,2.063-5.435,6.234,6.234,0,0,0-3.245,1.478s.429-2.173,3.79-2.2c0,0,1.825-2.266,2.318-2.387a13.623,13.623,0,0,0-5.389.348s1.883-1.982,6.021-.829l2.44-1.791s-4.41-.892-6.276-.313c0,0,2.237-1.738,6.907-.145l2.625-1.4a23.074,23.074,0,0,0-5.945-.817s2.417-1.159,6.71.446l1.866-.724s-2.718-.678-3.517-.805-.829-.348-.829-.348a9.533,9.533,0,0,1,5.123.834S674.341,108.472,674.3,108.229Z" transform="translate(-330.231 -77.342)" fill="#ff7321" opacity="0.1"/>
    <path id="Path_256" data-name="Path 256" d="M1005.909,402.4s-21.95-2.445-20.137,13.119a3.761,3.761,0,0,0,1.739,4.056s.1-1.159,2.318-.643a10.022,10.022,0,0,0,2.387.238,4.943,4.943,0,0,0,2.984-1.06h0s6.322-2.243,9.243-12.233c0,0,1.889-2.121,1.848-2.689l-3.8,1.4s1.159,2.747,0,4.925c0,0,.122-4.821-.579-4.74-.145,0-1.976.829-1.976.829s1.947,4.781.128,8.113c0,0,.916-5.719-.829-7.788l-2.694,1.4s2.318,4.954.382,8.8c0,0,.747-6.015-.95-8.46l-2.463,1.738s2.156,4.873.527,8.06c0,0,.168-7.035-1.066-7.626a15.292,15.292,0,0,0-2.521,2.457s1.472,3.535.359,5.3c0,0-.388-4.711-.9-4.757,0,0-2.225,3-2.55,5.111a11.283,11.283,0,0,1,2.063-5.435,6.182,6.182,0,0,0-3.245,1.478s.429-2.179,3.79-2.2c0,0,1.831-2.266,2.318-2.382a13.577,13.577,0,0,0-5.389.342s1.883-1.976,6.026-.823l2.434-1.791s-4.358-.823-6.253-.255c0,0,2.237-1.738,6.907-.151l2.625-1.391a23.074,23.074,0,0,0-5.945-.817s2.416-1.159,6.71.446l1.866-.73s-2.718-.678-3.517-.8-.829-.348-.829-.348a9.5,9.5,0,0,1,5.123.829S1005.967,402.648,1005.909,402.4Z" transform="translate(-469.687 -201.049)" fill="#ff7321" opacity="0.1"/>
    <path id="Path_257" data-name="Path 257" d="M1063.819,437.779s-21.951-2.44-20.137,13.119a3.772,3.772,0,0,0,1.738,4.056s.1-1.159,2.318-.637a10.227,10.227,0,0,0,2.381.232,5.006,5.006,0,0,0,2.973-1.055h0s6.316-2.243,9.237-12.238c0,0,1.895-2.115,1.849-2.689l-3.8,1.4s1.159,2.747,0,4.926c0,0,.122-4.815-.579-4.74-.145,0-1.976.829-1.976.829s1.947,4.781.127,8.113c0,0,.916-5.719-.828-7.782l-2.695,1.391s2.318,4.954.382,8.8c0,0,.747-6.015-.95-8.454l-2.463,1.738s2.156,4.873.533,8.066c0,0,.162-7.041-1.072-7.632a15.3,15.3,0,0,0-2.521,2.457s1.472,3.535.359,5.3c0,0-.388-4.711-.9-4.757,0,0-2.225,3-2.544,5.111a11.308,11.308,0,0,1,2.057-5.435,6.236,6.236,0,0,0-3.245,1.478s.435-2.179,3.8-2.2c0,0,1.825-2.266,2.318-2.387a13.625,13.625,0,0,0-5.389.348s1.883-1.982,6.026-.829l2.434-1.791s-4.358-.823-6.252-.255c0,0,2.237-1.738,6.907-.145l2.625-1.4a23.07,23.07,0,0,0-5.945-.817s2.417-1.159,6.71.446l1.866-.724s-2.718-.678-3.512-.805-.834-.348-.834-.348a9.532,9.532,0,0,1,5.122.834S1063.877,438.028,1063.819,437.779Z" transform="translate(-494.04 -215.928)" fill="#ff7321" opacity="0.1"/>
    <path id="Path_258" data-name="Path 258" d="M931.759,135.83s-17.685-13.229-24.007,1.1a3.771,3.771,0,0,0-.545,4.392s.661-.933,2.318.614a10.147,10.147,0,0,0,1.935,1.414,4.978,4.978,0,0,0,3.112.579h0s6.583,1.269,14.168-5.864c0,0,2.7-.869,2.955-1.379l-3.981-.719s-.417,2.938-2.474,4.253c0,0,2.544-4.091,1.883-4.387-.133-.064-2.121-.29-2.121-.29s-.747,5.111-3.993,7.041c0,0,3.691-4.468,3.233-7.133l-3.031-.162s-.516,5.441-4.132,7.782c0,0,3.7-4.8,3.477-7.771l-3,.243s-.58,5.291-3.628,7.214c0,0,3.709-5.98,2.944-7.116a14.568,14.568,0,0,0-3.419.84s-.522,3.79-2.376,4.752c0,0,2.051-4.259,1.634-4.555,0,0-3.436,1.454-4.786,3.112a11.318,11.318,0,0,1,4.532-3.639,6.241,6.241,0,0,0-3.546-.371s1.478-1.657,4.387.029a14.568,14.568,0,0,1,3.181-.9,13.561,13.561,0,0,0-4.821-2.428s2.631-.753,5.615,2.318l3.007-.307s-3.338-2.9-5.262-3.384c0,0,2.8-.353,6.026,3.367l2.973.133a23.232,23.232,0,0,0-4.711-3.72s2.666.232,5.557,3.784l1.976.319s-2-1.959-2.625-2.469-.533-.678-.533-.678a9.528,9.528,0,0,1,3.987,3.315S931.684,136.068,931.759,135.83Z" transform="translate(-436.482 -86.667)" fill="#ff7321" opacity="0.1"/>
    <path id="Path_259" data-name="Path 259" d="M956.9,293.618s-6.1-21.226-19.806-13.606a3.765,3.765,0,0,0-3.089,3.17s1.089-.342,1.466,1.878a10.272,10.272,0,0,0,.7,2.318,4.978,4.978,0,0,0,2.121,2.364h0s4.485,4.983,14.835,3.871c0,0,2.677.939,3.187.684l-2.741-2.978s-2.1,2.1-4.537,1.9c0,0,4.5-1.738,4.149-2.358-.069-.128-1.518-1.512-1.518-1.512s-3.674,3.628-7.429,3.2c0,0,5.638-1.333,6.878-3.732l-2.318-1.959s-3.7,4.021-7.991,3.709c0,0,5.841-1.605,7.452-4.1l-2.538-1.617s-3.68,3.853-7.249,3.564c0,0,6.565-2.532,6.646-3.894a14.466,14.466,0,0,0-3.239-1.391s-2.706,2.7-4.763,2.353c0,0,4.207-2.161,4.056-2.648,0,0-3.616-.91-5.7-.406a11.306,11.306,0,0,1,5.795-.168,6.218,6.218,0,0,0-2.608-2.434s2.179-.435,3.477,2.666a14.462,14.462,0,0,1,3.077,1.205,13.554,13.554,0,0,0-2.376-4.844s2.55.985,3.065,5.25l2.584,1.57s-.9-4.346-2.155-5.876c0,0,2.445,1.408,2.776,6.322l2.318,1.895a22.983,22.983,0,0,0-1.513-5.795s1.988,1.8,2.15,6.374l1.379,1.449s-.406-2.77-.58-3.558,0-.9,0-.9a9.5,9.5,0,0,1,1.188,5.053S956.7,293.757,956.9,293.618Z" transform="translate(-447.964 -148.946)" fill="#ff7321" opacity="0.1"/>
    <path id="Path_260" data-name="Path 260" d="M720.988,379.213s-11.839-18.647-22.831-7.487a3.748,3.748,0,0,0-2.074,3.911s.956-.637,1.941,1.391a9.92,9.92,0,0,0,1.31,2,4.948,4.948,0,0,0,2.695,1.669h0s5.708,3.523,15.327-.464c0,0,2.834.151,3.251-.238l-3.477-2.086s-1.431,2.608-3.824,3.1c0,0,3.836-2.9,3.32-3.43-.1-.1-1.883-1.02-1.883-1.02s-2.509,4.508-6.229,5.163c0,0,5.036-2.868,5.557-5.522l-2.776-1.223s-2.416,4.9-6.623,5.795c0,0,5.157-3.181,6-6.032l-2.9-.834s-2.445,4.734-5.951,5.459c0,0,5.586-4.276,5.279-5.609a14.393,14.393,0,0,0-3.477-.423s-1.837,3.355-3.911,3.6c0,0,3.43-3.257,3.146-3.685,0,0-3.726.145-5.58,1.217a11.277,11.277,0,0,1,5.528-1.8,6.218,6.218,0,0,0-3.181-1.605s1.964-1.026,4.056,1.582a14.313,14.313,0,0,1,3.3.29,13.339,13.339,0,0,0-3.645-3.981s2.723.232,4.416,4.178l2.926.777s-2.092-3.911-3.72-5.03c0,0,2.741.661,4.439,5.291l2.735,1.159a23.1,23.1,0,0,0-3.089-5.146s2.411,1.159,3.854,5.511l1.738,1s-1.159-2.544-1.57-3.245-.249-.863-.249-.863a9.5,9.5,0,0,1,2.555,4.514S720.832,379.41,720.988,379.213Z" transform="translate(-347.887 -186.712)" fill="#ff7321" opacity="0.1"/>
    <path id="Path_261" data-name="Path 261" d="M855.355,214.453s-11.259-19-22.6-8.188a3.768,3.768,0,0,0-2.19,3.848s.968-.614,1.895,1.443a10.018,10.018,0,0,0,1.246,2.051,4.921,4.921,0,0,0,2.642,1.738h0s5.592,3.7,15.333,0c0,0,2.828.238,3.257-.139l-3.4-2.19s-1.507,2.555-3.917,2.979c0,0,3.923-2.8,3.431-3.326-.1-.11-1.854-1.084-1.854-1.084s-2.648,4.433-6.374,4.972c0,0,5.122-2.712,5.719-5.343l-2.735-1.286s-2.567,4.827-6.8,5.6c0,0,5.256-3.019,6.183-5.841l-2.862-.927s-2.6,4.636-6.119,5.273c0,0,5.714-4.1,5.447-5.441a14.309,14.309,0,0,0-3.477-.533s-1.941,3.3-4.021,3.477c0,0,3.529-3.141,3.262-3.581,0,0-3.732.029-5.615,1.043a11.311,11.311,0,0,1,5.58-1.623,6.231,6.231,0,0,0-3.135-1.7s2-.968,4.056,1.7a14.679,14.679,0,0,1,3.286.394,13.863,13.863,0,0,0-3.517-4.091s2.712.313,4.282,4.311l2.9.869s-1.964-3.975-3.564-5.146c0,0,2.723.748,4.276,5.424l2.695,1.257a23.277,23.277,0,0,0-2.9-5.215s2.37,1.234,3.685,5.627l1.7,1.055s-1.089-2.579-1.472-3.291-.22-.869-.22-.869a9.521,9.521,0,0,1,2.416,4.589S855.186,214.644,855.355,214.453Z" transform="translate(-404.448 -117.228)" fill="#ff7321"/>
    <path id="Path_262" data-name="Path 262" d="M736.895,277.778s.579-22.078-14.759-18.966a3.776,3.776,0,0,0-3.906,2.092s1.159,0,.834,2.231a10.183,10.183,0,0,0-.035,2.4,4.954,4.954,0,0,0,1.3,2.9h0s2.764,6.108,12.969,8.182c0,0,2.266,1.709,2.834,1.617l-1.738-3.662s-2.637,1.356-4.9.435c0,0,4.81-.284,4.676-.991,0-.145-1-1.906-1-1.906s-4.6,2.347-8.049.805c0,0,5.795.435,7.69-1.472l-1.617-2.567s-4.74,2.712-8.738,1.113c0,0,6.055.243,8.35-1.651l-1.929-2.318s-4.676,2.561-7.991,1.205c0,0,7.023-.423,7.533-1.7a15.03,15.03,0,0,0-2.666-2.318s-3.4,1.738-5.25.8c0,0,4.636-.776,4.665-1.292,0,0-3.17-1.964-5.308-2.109a11.282,11.282,0,0,1,5.592,1.6,6.229,6.229,0,0,0-1.738-3.112s2.208.249,2.509,3.593a14.4,14.4,0,0,1,2.573,2.086,13.55,13.55,0,0,0-.8-5.337s2.133,1.709,1.333,5.928l1.987,2.283s.452-4.416-.272-6.253c0,0,1.9,2.08.73,6.867l1.605,2.5a23.1,23.1,0,0,0,.319-5.992s1.344,2.318.116,6.728l.881,1.8s.446-2.764.5-3.57.278-.858.278-.858a9.516,9.516,0,0,1-.4,5.175S736.64,277.853,736.895,277.778Z" transform="translate(-357.222 -140.599)" fill="#ff7321"/>
    <ellipse id="Ellipse_23" data-name="Ellipse 23" cx="15.605" cy="2.637" rx="15.605" ry="2.637" transform="translate(389.425 412.439)" fill="#ff7321" opacity="0.1"/>
    <ellipse id="Ellipse_24" data-name="Ellipse 24" cx="15.605" cy="2.637" rx="15.605" ry="2.637" transform="translate(332.539 452.469)" fill="#ff7321" opacity="0.1"/>
    <ellipse id="Ellipse_25" data-name="Ellipse 25" cx="15.605" cy="2.637" rx="15.605" ry="2.637" transform="translate(38.365 431.961)" fill="#ff7321" opacity="0.1"/>
    <ellipse id="Ellipse_26" data-name="Ellipse 26" cx="15.605" cy="2.637" rx="15.605" ry="2.637" transform="translate(450.901 449.832)" fill="#ff7321" opacity="0.1"/>
    <ellipse id="Ellipse_27" data-name="Ellipse 27" cx="23.3" cy="3.94" rx="23.3" ry="3.94" transform="translate(459.454 415.076)" fill="#ff7321"/>
    <path id="Path_263" data-name="Path 263" d="M929.358,759.212a6.727,6.727,0,0,0,2.219-3.349,2.976,2.976,0,0,0-1.547-3.413c-1.425-.545-2.95.44-4.109,1.437s-2.474,2.138-3.987,1.93a6.085,6.085,0,0,0,1.878-5.685,2.383,2.383,0,0,0-.522-1.159c-.794-.846-2.225-.481-3.175.185-3.013,2.121-3.854,6.212-3.871,9.9a18.606,18.606,0,0,1-.052-4.057c-.006-1.344-.382-2.9-1.536-3.6a4.584,4.584,0,0,0-2.318-.579,4.84,4.84,0,0,0-3.79,1.078c-1.159,1.229-.852,3.3.145,4.636a14.983,14.983,0,0,0,3.923,3.141,8.77,8.77,0,0,1,2.8,2.672,2.735,2.735,0,0,1,.2.475h8.5A23.441,23.441,0,0,0,929.358,759.212Z" transform="translate(-436.944 -346.645)" fill="#ff7321"/>
    <path id="Path_264" data-name="Path 264" d="M170.29,780.38s8.895-.272,11.589-2.185,13.693-4.189,14.359-1.124,13.374,15.234,3.326,15.315-23.347-1.565-26.024-3.2S170.29,780.38,170.29,780.38Z" transform="translate(-126.797 -358.038)" fill="#a8a8a8"/>
    <path id="Path_265" data-name="Path 265" d="M199.733,794.8c-10.048.081-23.347-1.565-26.024-3.2-2.04-1.24-2.851-5.7-3.123-7.753h-.3s.579,7.18,3.239,8.808,15.976,3.28,26.024,3.2c2.9,0,3.9-1.055,3.848-2.584C203,794.205,201.888,794.785,199.733,794.8Z" transform="translate(-126.797 -361.519)" opacity="0.2"/>
  </g>
</svg>
