<svg xmlns="http://www.w3.org/2000/svg" width="490.204" height="433.858" viewBox="0 0 490.204 433.858">
  <g id="Group_75" data-name="Group 75" transform="translate(0 0)">
    <path id="Path_166" data-name="Path 166" d="M622.1,357.374v-1.058c2.1,0,4.239-.044,6.348-.128l.042,1.057C626.366,357.33,624.216,357.373,622.1,357.374Zm-6.388-.122c-2.115-.083-4.261-.209-6.378-.376l.083-1.055c2.1.166,4.235.292,6.337.374Zm19.157-.39-.084-1.055c2.1-.168,4.224-.381,6.315-.634l.127,1.051c-2.105.254-4.244.469-6.358.638Zm-31.894-.617c-2.11-.253-4.239-.551-6.329-.886l.168-1.045c2.076.333,4.191.629,6.286.88Zm44.579-.914-.169-1.045c2.075-.335,4.176-.719,6.244-1.14l.211,1.036C651.756,354.606,649.641,354.992,647.552,355.33Zm-57.195-1.113c-2.082-.422-4.18-.891-6.237-1.394l.252-1.028c2.043.5,4.127.967,6.195,1.385Zm69.717-1.437-.253-1.027c2.049-.5,4.112-1.057,6.132-1.642l.294,1.017c-2.034.589-4.111,1.145-6.174,1.652Zm-82.128-1.6c-2.04-.589-4.094-1.226-6.1-1.895l.334-1c2,.664,4.036,1.3,6.062,1.883Zm94.4-1.952-.335-1c2-.667,4.009-1.385,5.979-2.134l.376.989c-1.983.754-4.009,1.477-6.019,2.148ZM565.8,347.134c-1.985-.752-3.984-1.556-5.943-2.39l.415-.973c1.945.829,3.932,1.627,5.9,2.374Zm118.472-2.44-.415-.973c1.934-.826,3.876-1.7,5.772-2.6l.455.956C688.179,342.981,686.224,343.863,684.277,344.695Zm-130.255-2.579c-1.922-.912-3.849-1.875-5.727-2.863l.492-.936c1.865.98,3.779,1.937,5.688,2.843Zm141.769-2.9-.493-.936c1.863-.981,3.73-2.011,5.548-3.063l.53.915c-1.83,1.058-3.709,2.1-5.585,3.083Zm-153.1-3.057c-1.844-1.066-3.685-2.181-5.474-3.314l.566-.894c1.776,1.125,3.606,2.233,5.437,3.292Zm164.143-3.332-.566-.894c1.774-1.124,3.552-2.3,5.287-3.5l.6.87c-1.746,1.207-3.536,2.393-5.322,3.524Zm-174.951-3.512c-1.75-1.209-3.495-2.467-5.187-3.741l.636-.845c1.681,1.265,3.415,2.515,5.153,3.716Zm185.451-3.748-.636-.845c1.677-1.262,3.357-2.579,4.992-3.915l.67.819c-1.646,1.345-3.337,2.67-5.026,3.941Zm-195.671-3.939c-1.643-1.342-3.281-2.736-4.869-4.143l.7-.791c1.577,1.4,3.2,2.783,4.836,4.116Zm205.561-4.141-.7-.791c1.576-1.4,3.146-2.845,4.665-4.3l.733.764c-1.529,1.468-3.109,2.925-4.7,4.331ZM512.1,313.154c-1.526-1.466-3.047-2.986-4.52-4.517l.763-.734c1.463,1.521,2.974,3.032,4.49,4.487Zm224.343-4.513-.763-.734c1.459-1.517,2.908-3.086,4.308-4.664l.791.7c-1.41,1.588-2.869,3.168-4.337,4.7Zm-233.2-4.7c-1.411-1.59-2.8-3.226-4.143-4.863l.819-.67c1.329,1.626,2.714,3.251,4.115,4.83Zm241.68-4.864-.819-.67c1.337-1.635,2.656-3.316,3.922-5l.845.636c-1.273,1.692-2.6,3.384-3.949,5.029Zm-249.767-5.022c-1.275-1.693-2.533-3.434-3.738-5.176l.87-.6c1.2,1.73,2.447,3.46,3.713,5.142Zm257.458-5.193-.87-.6c1.2-1.738,2.383-3.52,3.51-5.3l.894.566c-1.133,1.789-2.323,3.583-3.534,5.333Zm-264.723-5.3c-1.134-1.788-2.247-3.623-3.309-5.456l.916-.53c1.055,1.821,2.161,3.644,3.287,5.419Zm271.572-5.5-.916-.53c1.059-1.83,2.093-3.7,3.073-5.566l.936.493C761.575,274.332,760.533,276.217,759.464,278.06ZM481.5,272.521c-.986-1.872-1.947-3.79-2.858-5.7l.955-.455c.9,1.9,1.859,3.8,2.838,5.663Zm283.928-5.789-.956-.455c.906-1.905,1.785-3.856,2.614-5.8l.973.415c-.837,1.956-1.72,3.92-2.63,5.838Zm-289.41-5.722c-.833-1.949-1.636-3.937-2.387-5.909l.989-.376c.746,1.959,1.543,3.934,2.371,5.869Zm294.436-6.059-.989-.375c.75-1.979,1.469-4,2.136-6l1,.335c-.673,2.013-1.4,4.044-2.149,6.036Zm-298.974-5.868c-.674-2.011-1.315-4.064-1.906-6.1l1.016-.295c.587,2.022,1.224,4.061,1.893,6.059Zm303.023-6.27-1.017-.293c.584-2.019,1.135-4.082,1.639-6.132l1.027.252C775.642,238.7,775.086,240.781,774.5,242.813Zm-306.585-6c-.508-2.06-.981-4.157-1.405-6.234l1.037-.212c.421,2.062.89,4.146,1.4,6.192ZM777.546,230.4l-1.037-.211c.418-2.061.8-4.162,1.137-6.245l1.045.168c-.34,2.1-.721,4.212-1.144,6.287Zm-312.188-6.113c-.339-2.089-.641-4.217-.9-6.327l1.05-.127c.254,2.1.554,4.21.891,6.284Zm314.222-6.5-1.051-.126c.252-2.094.464-4.219.63-6.316l1.055.084c-.166,2.11-.383,4.25-.637,6.358Zm-315.76-6.18c-.171-2.113-.3-4.259-.387-6.379l1.057-.043c.086,2.105.215,4.237.384,6.337Zm316.774-6.555-1.057-.042c.083-2.108.125-4.244.125-6.347v-.351h1.058v.348c0,2.119-.042,4.268-.127,6.39Zm-316.237-6.213H463.3v-.178c0-2.064.04-4.154.119-6.21l1.057.041c-.079,2.043-.118,4.119-.118,6.172Zm315.167-6.871c-.087-2.1-.219-4.233-.391-6.336l1.055-.086c.173,2.117.305,4.263.393,6.378Zm-314.678-5.813-1.055-.083c.166-2.119.378-4.258.628-6.359l1.051.125C465.222,181.926,465.012,184.051,464.847,186.156Zm313.641-6.838c-.255-2.087-.557-4.2-.9-6.283l1.045-.171c.343,2.1.647,4.225.9,6.326Zm-312.141-5.765-1.045-.167c.335-2.095.718-4.211,1.138-6.288l1.037.209c-.417,2.063-.8,4.165-1.13,6.247Zm310.092-6.76c-.425-2.068-.9-4.15-1.4-6.191l1.027-.255c.509,2.054.984,4.151,1.411,6.232Zm-307.581-5.681-1.028-.251c.5-2.059,1.056-4.137,1.643-6.176l1.017.293C469.907,157,469.358,159.065,468.859,161.111Zm304.527-6.638c-.589-2.021-1.228-4.059-1.9-6.057l1-.337c.676,2.012,1.319,4.063,1.912,6.1Zm-301.016-5.56-1-.334c.67-2.015,1.391-4.046,2.144-6.038l.99.374c-.748,1.979-1.465,4-2.13,6Zm296.973-6.472c-.752-1.968-1.551-3.942-2.377-5.867l.972-.417c.831,1.938,1.637,3.925,2.394,5.906ZM476.87,137.01l-.974-.414c.832-1.955,1.715-3.92,2.626-5.841l.956.453c-.9,1.908-1.782,3.86-2.608,5.8Zm287.482-6.2c-.906-1.9-1.863-3.8-2.844-5.66l.935-.494c.989,1.872,1.952,3.789,2.864,5.7Zm-282.034-5.288-.937-.491c.986-1.88,2.025-3.766,3.088-5.606l.917.529c-1.055,1.828-2.087,3.7-3.067,5.569Zm276.12-5.915c-1.058-1.821-2.166-3.644-3.293-5.416l.893-.568c1.135,1.785,2.25,3.619,3.315,5.453ZM488.675,114.51l-.894-.566c1.135-1.795,2.322-3.59,3.528-5.337l.87.6c-1.2,1.735-2.378,3.518-3.505,5.3Zm262.96-5.6c-1.2-1.729-2.451-3.458-3.719-5.137l.844-.638c1.276,1.69,2.536,3.43,3.743,5.172Zm-255.743-4.851-.846-.635c1.275-1.7,2.6-3.391,3.942-5.034l.82.669c-1.333,1.632-2.651,3.315-3.918,5Zm248.1-5.271c-1.334-1.628-2.721-3.252-4.12-4.825l.79-.7c1.409,1.584,2.8,3.219,4.148,4.858ZM503.922,94.215l-.792-.7c1.4-1.587,2.862-3.169,4.331-4.7l.763.733c-1.461,1.521-2.908,3.093-4.3,4.669ZM735.562,89.3c-1.464-1.519-2.976-3.027-4.5-4.483l.732-.764c1.529,1.465,3.051,2.983,4.525,4.513ZM512.709,85.054l-.734-.763c1.527-1.469,3.105-2.928,4.691-4.337l.7.791c-1.576,1.4-3.144,2.849-4.66,4.308ZM726.4,80.516c-1.581-1.4-3.21-2.781-4.841-4.11l.669-.82c1.642,1.339,3.282,2.731,4.873,4.138ZM522.2,76.628l-.671-.818c1.641-1.345,3.331-2.672,5.021-3.946l.637.845c-1.679,1.265-3.357,2.584-4.988,3.92Zm194.353-4.135c-1.688-1.267-3.423-2.515-5.156-3.711l.6-.871c1.745,1.2,3.492,2.46,5.192,3.736Zm-184.227-3.5-.6-.869c1.744-1.209,3.534-2.4,5.319-3.53l.567.893C535.834,66.611,534.056,67.79,532.324,68.991ZM706.09,65.28c-1.784-1.127-3.614-2.232-5.441-3.285l.529-.917c1.838,1.06,3.681,2.173,5.477,3.307ZM543.025,62.2l-.531-.915c1.829-1.061,3.707-2.1,5.581-3.089l.494.936C546.708,60.109,544.842,61.141,543.025,62.2ZM695.08,58.93c-1.869-.979-3.783-1.933-5.691-2.837l.453-.956c1.921.909,3.849,1.87,5.729,2.856ZM554.23,56.285l-.456-.955c1.908-.91,3.862-1.793,5.809-2.627l.416.973c-1.933.828-3.875,1.706-5.769,2.61Zm129.354-2.8c-1.945-.826-3.932-1.622-5.906-2.368l.374-.99c1.987.75,3.988,1.552,5.945,2.384ZM565.869,51.3l-.377-.989c1.98-.755,4-1.48,6.016-2.155l.336,1C569.845,49.831,567.835,50.552,565.869,51.3Zm105.811-2.307c-2-.663-4.04-1.294-6.064-1.876l.292-1.017c2.038.585,4.092,1.221,6.1,1.888ZM577.9,47.264l-.3-1.016c2.035-.592,4.111-1.151,6.171-1.66l.254,1.027C581.986,46.122,579.923,46.677,577.9,47.264Zm81.577-1.773c-2.043-.5-4.128-.962-6.2-1.378l.209-1.037c2.083.419,4.181.886,6.238,1.387Zm-69.256-1.274-.212-1.036c2.074-.425,4.189-.813,6.285-1.155l.171,1.044C594.384,43.41,592.284,43.8,590.223,44.217Zm56.813-1.231c-2.081-.332-4.2-.626-6.287-.873l.125-1.051c2.105.249,4.235.545,6.329.879Zm-44.286-.811-.128-1.05c2.1-.256,4.244-.473,6.357-.645l.086,1.054c-2.1.171-4.224.386-6.315.641Zm31.682-.682c-2.1-.164-4.23-.287-6.337-.367l.04-1.058c2.121.081,4.267.2,6.379.369Zm-19.03-.346-.043-1.057c2.116-.087,4.265-.133,6.389-.137l0,1.058C619.639,41.015,617.5,41.061,615.4,41.147Z" transform="translate(-290.517 -39.953)" fill="#3f3d56"/>
    <rect id="Rectangle_73" data-name="Rectangle 73" width="271.43" height="333.891" transform="translate(34.61 92.703)" fill="#f2f2f2"/>
    <rect id="Rectangle_74" data-name="Rectangle 74" width="271.43" height="37.201" transform="translate(34.61 74.333)" fill="#ff7321"/>
    <rect id="Rectangle_75" data-name="Rectangle 75" width="334.35" height="86.083" transform="translate(9.698 338.252)" fill="#3f3d56"/>
    <circle id="Ellipse_13" data-name="Ellipse 13" cx="23.423" cy="23.423" r="23.423" transform="translate(26.232 357.74)" fill="#ff7321"/>
    <rect id="Rectangle_76" data-name="Rectangle 76" width="96.906" height="6.889" transform="translate(98.797 361.415)" fill="#fff"/>
    <rect id="Rectangle_77" data-name="Rectangle 77" width="213.561" height="6.889" transform="translate(98.797 377.949)" fill="#fff"/>
    <rect id="Rectangle_78" data-name="Rectangle 78" width="213.561" height="6.889" transform="translate(98.797 394.482)" fill="#fff"/>
    <circle id="Ellipse_14" data-name="Ellipse 14" cx="23.423" cy="23.423" r="23.423" transform="translate(49.077 142.305)" fill="#ff7321"/>
    <rect id="Rectangle_79" data-name="Rectangle 79" width="80.234" height="6.889" transform="translate(114.753 149.194)" fill="#fff"/>
    <rect id="Rectangle_80" data-name="Rectangle 80" width="176.82" height="6.889" transform="translate(114.753 165.728)" fill="#fff"/>
    <rect id="Rectangle_81" data-name="Rectangle 81" width="176.82" height="6.889" transform="translate(114.753 182.261)" fill="#fff"/>
    <circle id="Ellipse_15" data-name="Ellipse 15" cx="23.423" cy="23.423" r="23.423" transform="translate(49.077 249.948)" fill="#ff7321"/>
    <rect id="Rectangle_82" data-name="Rectangle 82" width="80.234" height="6.889" transform="translate(114.753 256.837)" fill="#fff"/>
    <rect id="Rectangle_83" data-name="Rectangle 83" width="176.82" height="6.889" transform="translate(114.753 273.371)" fill="#fff"/>
    <rect id="Rectangle_84" data-name="Rectangle 84" width="176.82" height="6.889" transform="translate(114.753 289.905)" fill="#fff"/>
    <rect id="Rectangle_85" data-name="Rectangle 85" width="34.905" height="5.052" transform="translate(41.499 81.681)" fill="#fff"/>
    <rect id="Rectangle_86" data-name="Rectangle 86" width="34.905" height="5.052" transform="translate(41.499 90.407)" fill="#fff"/>
    <rect id="Rectangle_87" data-name="Rectangle 87" width="34.905" height="5.052" transform="translate(41.499 99.133)" fill="#fff"/>
    <rect id="Rectangle_88" data-name="Rectangle 88" width="1.058" height="71.515" transform="translate(30.533 269.419)" fill="#3f3d56"/>
    <circle id="Ellipse_16" data-name="Ellipse 16" cx="10.113" cy="10.113" r="10.113" transform="translate(20.949 259.306)" fill="#3f3d56"/>
    <path id="Path_167" data-name="Path 167" d="M167.761,607.827s-1.445-31.073-31.062-27.462" transform="translate(-136.699 -294.331)" fill="#3f3d56"/>
    <path id="Path_168" data-name="Path 168" d="M732.393,421.211l-12.075,22.757S633,460.688,644.151,486.7s23.686,64.091,30.188,63.162S716.6,528.495,718,522.457s-32.046-34.368-32.046-34.368l55.267-10.682s7.9,37.154-2.322,62.7-16.255,94.744-9.289,95.673,24.615,6.5,32.51,1.393,11.611-117.037,11.611-117.037,16.72-73.38,6.5-81.74S732.393,421.211,732.393,421.211Z" transform="translate(-375.228 -219.512)" fill="#2f2e41"/>
    <path id="Path_169" data-name="Path 169" d="M826.212,802.914s-10.672-5.617-12.919-1.123c0,0,1.685,13.481-5.055,15.166s-9.549,13.481,0,14.6,15.727-2.247,19.1-2.247,0-11.8,0-11.8Z" transform="translate(-450.073 -397.931)" fill="#2f2e41"/>
    <path id="Path_170" data-name="Path 170" d="M734.523,628.289s-11.617-3.24-12.865,1.626c0,0,4.49,12.822-1.743,15.891s-6.491,15.191,3.08,14.276,14.9-5.513,18.194-6.224-2.488-11.53-2.488-11.53Z" transform="translate(-409.285 -316.541)" fill="#2f2e41"/>
    <path id="Path_171" data-name="Path 171" d="M857.766,266.52s.464,17.184-2.787,18.577,18.113,9.753,18.113,9.753l3.715-6.5s-4.18-23.222-3.251-25.079S857.766,266.52,857.766,266.52Z" transform="translate(-474.826 -144.936)" fill="#9f616a"/>
    <circle id="Ellipse_17" data-name="Ellipse 17" cx="28.476" cy="28.476" r="28.476" transform="translate(362.214 68.539)" fill="#2f2e41"/>
    <circle id="Ellipse_18" data-name="Ellipse 18" cx="11.783" cy="11.783" r="11.783" transform="translate(380.871 58.574)" fill="#2f2e41"/>
    <path id="Path_172" data-name="Path 172" d="M847.025,150.39a11.784,11.784,0,0,1,10.555-11.719,11.908,11.908,0,0,0-1.227-.064,11.783,11.783,0,1,0,0,23.566,11.917,11.917,0,0,0,1.227-.064,11.784,11.784,0,0,1-10.556-11.719Z" transform="translate(-470.082 -86.416)" fill="#2f2e41"/>
    <circle id="Ellipse_19" data-name="Ellipse 19" cx="19.506" cy="19.506" r="19.506" transform="translate(370.401 91.397)" fill="#9f616a"/>
    <path id="Path_173" data-name="Path 173" d="M848.768,296.495s-16.719,5.109-25.079,0-28.33,9.753-31.581,16.255,12.075,13,12.075,13-4.377,12.556-3.483,18.809c.929,6.5-.7,19.738-.7,19.738s41.031,27.032,50.159,14.862c1.393-1.858,13-45.514,13-45.514l16.255-16.255s-10.217-14.862-16.255-16.255A131.173,131.173,0,0,1,848.768,296.495Z" transform="translate(-445.16 -160.281)" fill="#d0cde1"/>
    <path id="Path_174" data-name="Path 174" d="M664.492,477.835s-31.581,16.255-25.079,20.9,32.975-18.113,32.975-18.113Z" transform="translate(-373.045 -246.18)" fill="#9f616a"/>
    <path id="Path_175" data-name="Path 175" d="M907.3,450.481s-14.052-9.488-16.315-4.744,15.386,15.426,19.1,11.246S907.3,450.481,907.3,450.481Z" transform="translate(-491.847 -230.438)" fill="#9f616a"/>
    <path id="Path_176" data-name="Path 176" d="M929.254,327.278l8.36,5.109s28.33,39.012,18.577,47.836S921.359,406.7,921.359,406.7s-8.36-12.075-5.573-12.54,25.079-19.042,25.079-19.042l-19.506-36.226Z" transform="translate(-503.354 -175.273)" fill="#d0cde1"/>
    <path id="Path_177" data-name="Path 177" d="M746.4,323.766l-6.037,2.322-15.791,28.33-41.8,50.623s5.573,8.824,10.217,6.966,39.477-40.87,39.477-40.87l22.757-35.3Z" transform="translate(-393.882 -173.619)" fill="#d0cde1"/>
    <ellipse id="Ellipse_20" data-name="Ellipse 20" cx="19.639" cy="11.783" rx="19.639" ry="11.783" transform="translate(371.051 75.943)" fill="#2f2e41"/>
  </g>
</svg>
